<svg width="20" height="20" viewBox="0 0 20 20" fill="none" xmlns="http://www.w3.org/2000/svg">
<path d="M19.0459 10.7899C18.8878 12.5001 18.246 14.1299 17.1955 15.4886C16.145 16.8473 14.7293 17.8787 13.1139 18.4622C11.4986 19.0457 9.75056 19.157 8.07427 18.7832C6.39798 18.4095 4.8628 17.566 3.64838 16.3516C2.43395 15.1372 1.59051 13.602 1.21673 11.9257C0.842959 10.2494 0.954319 8.50134 1.53778 6.88603C2.12124 5.27072 3.15267 3.85498 4.51139 2.80447C5.8701 1.75397 7.49989 1.11214 9.21006 0.954102C8.20881 2.30868 7.727 3.97764 7.85227 5.65742C7.97753 7.33721 8.70155 8.91625 9.89264 10.1073C11.0837 11.2984 12.6628 12.0224 14.3426 12.1477C16.0223 12.273 17.6913 11.7912 19.0459 10.7899Z" stroke="#0D0D0D" stroke-width="1.92564" stroke-linecap="round" stroke-linejoin="round"/>
</svg>
